HIERARCHY
ROOT Hips
{
  OFFSET 0.0000 0.0000 0.0000
  CHANNELS 6 Xposition Yposition Zposition Zrotation Xrotation Yrotation
  JOINT Chest
  {
    OFFSET 0.0415 6.2451 0.0203
    CHANNELS 3 Zrotation Xrotation Yrotation
    JOINT Chest2
    {
      OFFSET 0.0118 22.5192 -0.7792
      CHANNELS 3 Zrotation Xrotation Yrotation
      JOINT LeftCollar
      {
        OFFSET -0.3300 25.0202 0.8579
        CHANNELS 3 Zrotation Xrotation Yrotation
        JOINT LeftShoulder
        {
          OFFSET 15.6466 -3.5590 0.4633
          CHANNELS 3 Zrotation Xrotation Yrotation
          JOINT LeftElbow
          {
            OFFSET 6.7754 -28.9612 2.1049
            CHANNELS 3 Zrotation Xrotation Yrotation
            JOINT LeftWrist
            {
              OFFSET 5.9027 -23.6186 1.7304
              CHANNELS 3 Zrotation Xrotation Yrotation
              End Site
              {
                  OFFSET 3.1558 -12.6376 1.4914
              }
            }
          }
        }
      }
      JOINT RightCollar
      {
        OFFSET -0.3300 25.0202 0.8579
        CHANNELS 3 Zrotation Xrotation Yrotation
        JOINT RightShoulder
        {
          OFFSET -16.4539 -3.5322 0.3872
          CHANNELS 3 Zrotation Xrotation Yrotation
          JOINT RightElbow
          {
            OFFSET -4.8221 -28.1315 1.8729
            CHANNELS 3 Zrotation Xrotation Yrotation
            JOINT RightWrist
            {
              OFFSET -4.8043 -24.5954 1.9632
              CHANNELS 3 Zrotation Xrotation Yrotation
              End Site
              {
                  OFFSET -2.1004 -12.6180 1.5621
              }
            }
          }
        }
      }
      JOINT Neck
      {
        OFFSET -0.3300 25.0202 0.8579
        CHANNELS 3 Zrotation Xrotation Yrotation
        JOINT Head
        {
          OFFSET 0.0109 7.8688 4.0098
          CHANNELS 3 Zrotation Xrotation Yrotation
          End Site
          {
              OFFSET 0.0148 21.3157 0.1776
          }
        }
      }
    }
  }
  JOINT LeftHip
  {
    OFFSET 10.8348 -0.5413 6.5943
    CHANNELS 3 Zrotation Xrotation Yrotation
    JOINT LeftKnee
    {
      OFFSET 0.3095 -50.5329 1.7518
      CHANNELS 3 Zrotation Xrotation Yrotation
      JOINT LeftAnkle
      {
        OFFSET -0.0684 -39.6946 -5.8746
        CHANNELS 3 Zrotation Xrotation Yrotation
        End Site
        {
            OFFSET -0.2318 -8.9919 20.0380
        }
      }
    }
  }
  JOINT RightHip
  {
    OFFSET -11.3246 -0.4989 6.1982
    CHANNELS 3 Zrotation Xrotation Yrotation
    JOINT RightKnee
    {
      OFFSET -0.7161 -50.1472 3.0584
      CHANNELS 3 Zrotation Xrotation Yrotation
      JOINT RightAnkle
      {
        OFFSET -0.2903 -40.3705 -6.6390
        CHANNELS 3 Zrotation Xrotation Yrotation
        End Site
        {
            OFFSET -0.3795 -8.9623 20.5761
        }
      }
    }
  }
}
MOTION
Frames:	10
Frame Time:	0.033333
90.6232 98.6260 484.8356 22.29 13.09 -27.08 -5.16 15.12 1.71 -5.20 15.10 1.73 -5.71 0.09 -1.19 29.48 -15.26 -30.86 0.49 -37.01 -10.19 9.71 11.55 -6.53 -2.73 -0.27 5.46 -22.43 -28.27 50.63 -8.14 -17.29 3.96 -2.25 -4.48 -14.51 2.87 9.26 7.87 2.86 9.28 7.87 -7.50 -40.29 2.60 0.40 26.24 -1.30 -7.36 -1.69 1.30 -5.40 -36.57 -11.80 -52.50 86.97 55.95 1.78 3.57 -12.70 
87.5520 102.2901 483.8277 19.09 17.62 -20.93 -2.07 14.87 -1.34 -2.10 14.86 -1.32 -3.54 0.09 -2.03 30.30 -21.25 -29.46 -4.26 -50.52 -16.67 16.89 13.47 -12.19 -3.59 -0.36 5.77 -24.90 -32.29 46.17 -7.64 -22.94 5.08 -8.44 -6.24 -17.39 7.06 7.67 7.02 7.05 7.69 7.02 -4.50 -39.44 0.40 0.18 16.22 -0.75 -7.77 9.42 -2.48 -5.22 -45.00 -12.44 -8.56 77.39 11.68 1.90 2.05 -11.72 
83.8518 105.6451 482.2870 15.96 23.39 -14.97 0.35 14.40 -4.27 0.32 14.40 -4.24 -0.65 -0.03 -3.57 35.55 -26.76 -21.92 -9.45 -58.53 -22.84 19.46 13.19 -14.00 -4.01 -0.45 6.35 -27.19 -34.36 37.14 -6.45 -32.37 7.22 -13.55 -7.35 -17.54 8.93 7.42 5.48 8.92 7.43 5.48 -1.85 -43.00 0.80 0.10 10.67 -0.49 -5.89 13.93 0.33 -5.95 -49.60 -9.30 -2.24 60.69 4.82 1.01 4.38 -13.02 
80.1517 109.0001 480.7462 12.00 28.79 -8.37 2.73 13.82 -7.17 2.71 13.83 -7.13 2.25 -0.23 -5.11 41.86 -31.56 -13.44 -18.24 -66.06 -32.59 22.01 12.82 -15.79 -4.43 -0.54 6.93 -29.91 -36.10 27.80 -4.63 -41.75 9.90 -18.68 -8.44 -17.78 10.79 7.12 3.95 10.78 7.13 3.95 1.01 -46.54 1.48 0.05 5.12 -0.24 -4.19 18.53 3.04 -6.33 -54.21 -5.92 -0.68 43.88 2.69 0.17 6.74 -14.29 
76.3256 109.6007 479.7373 9.30 31.04 -3.01 3.67 14.20 -8.76 3.65 14.22 -8.73 3.93 -0.41 -5.61 51.73 -39.15 -3.88 -13.50 -62.61 -27.40 19.63 14.49 -17.19 -3.95 -0.50 7.08 -34.22 -36.70 17.22 -2.34 -49.54 12.86 -18.23 -7.36 -10.83 9.80 9.89 2.35 9.79 9.90 2.35 1.20 -51.12 4.20 0.05 11.73 -0.54 -1.77 12.64 8.70 -8.82 -53.82 -0.55 -0.24 32.68 1.83 -0.11 10.38 -15.94 
72.4996 110.2013 478.7284 6.30 33.06 2.59 4.61 14.56 -10.36 4.60 14.58 -10.33 5.62 -0.60 -6.11 64.34 -45.09 8.43 -9.87 -59.02 -23.32 17.27 16.21 -18.51 -3.48 -0.45 7.22 -38.60 -36.65 6.57 1.15 -57.22 17.00 -17.91 -6.24 -3.90 8.87 12.69 0.79 8.87 12.70 0.78 1.80 -55.69 7.26 0.09 18.34 -0.86 1.18 7.02 14.50 -11.35 -53.57 4.80 -0.03 21.49 1.14 -0.30 14.03 -17.59 
68.9417 107.6700 478.5354 5.05 31.80 5.18 4.55 15.69 -10.26 4.53 15.71 -10.22 5.95 -0.47 -4.55 73.27 -52.42 19.00 -5.06 -52.06 -17.66 17.08 17.76 -18.56 -2.37 -0.29 6.45 -43.99 -36.19 0.15 1.62 -58.03 17.53 -19.08 -4.56 1.34 5.61 17.58 0.17 5.60 17.59 0.15 2.52 -57.43 9.58 0.37 32.65 -1.64 1.58 2.26 13.19 -13.29 -52.34 4.05 -0.14 21.33 1.19 -0.10 11.72 -15.32 
65.3838 105.1387 478.3425 3.89 30.50 7.70 4.48 16.83 -10.15 4.46 16.85 -10.11 6.27 -0.34 -2.99 86.19 -58.32 33.50 -1.86 -44.89 -13.57 16.89 19.31 -18.61 -1.26 -0.14 5.68 -49.24 -35.25 -6.14 2.12 -58.83 18.10 -20.41 -3.00 6.62 2.30 22.49 -0.17 2.30 22.50 -0.20 3.41 -59.16 12.07 1.00 46.95 -2.71 1.87 -2.50 11.92 -15.15 -51.11 3.38 -0.26 21.17 1.24 0.19 9.42 -13.05 
62.3409 101.7828 478.7143 2.89 27.60 7.74 4.28 18.31 -8.96 4.25 18.33 -8.92 5.50 -0.21 -2.03 83.57 -59.99 36.79 -2.55 -46.69 -14.48 20.32 16.57 -16.78 -0.03 -0.01 5.46 -50.82 -31.79 -5.50 -0.34 -54.37 15.27 -22.99 -1.61 10.19 -0.37 25.41 0.57 -0.37 25.41 0.54 2.79 -55.94 9.87 2.23 59.72 -4.28 0.41 -4.26 10.78 -12.40 -51.15 1.17 -0.57 27.57 1.70 1.22 2.64 -10.17 
59.2979 98.4268 479.0861 1.92 24.71 7.72 4.05 19.79 -7.76 4.01 19.80 -7.71 4.73 -0.09 -1.07 81.01 -61.73 40.10 -3.31 -48.49 -15.46 23.79 13.93 -14.81 1.21 0.10 5.24 -52.38 -28.34 -4.79 -2.22 -49.86 13.00 -25.65 -0.39 13.82 -3.14 28.28 1.49 -3.14 28.29 1.45 2.42 -52.71 7.90 5.44 72.44 -7.82 -1.10 -5.99 9.59 -9.65 -51.26 -1.02 -0.97 33.98 2.24 2.58 -4.08 -7.16 
